<svg version="1.2" xmlns="http://www.w3.org/2000/svg" viewBox="0 0 960 960" width="960" height="960">
	<title>error-svg</title>
	<style>
		.s0 { fill: #000000 } 
		.s1 { fill: #ff7800;stroke: #ff0000;stroke-miterlimit:100;stroke-width: 5 } 
	</style>
	<path id="Layer" fill-rule="evenodd" class="s0" d="m480 880q-83 0-156-31.5-73-31.5-127-85.5-54-54-85.5-127-31.5-73-31.5-156 0-83 31.5-156 31.5-73 85.5-127 54-54 127-85.5 73-31.5 156-31.5 83 0 156 31.5 73 31.5 127 85.5 54 54 85.5 127 31.5 73 31.5 156 0 83-31.5 156-31.5 73-85.5 127-54 54-127 85.5-73 31.5-156 31.5zm0-80q134 0 227-93 93-93 93-227 0-134-93-227-93-93-227-93-134 0-227 93-93 93-93 227 0 134 93 227 93 93 227 93zm-28.5-131.5q-11.5-11.5-11.5-28.5 0-17 11.5-28.5 11.5-11.5 28.5-11.5 17 0 28.5 11.5 11.5 11.5 11.5 28.5 0 17-11.5 28.5-11.5 11.5-28.5 11.5-17 0-28.5-11.5zm-11.5-388.5h80v240h-80z"/>
	<path id="Layer 1" class="s1" d="m700.8 306.5c-63 0-113.8-50.8-113.8-113.8 0-62.9 50.8-113.7 113.8-113.7 62.9 0 113.7 50.8 113.7 113.7 0 63-50.8 113.8-113.7 113.8z"/>
</svg>